<mxfile host="app.diagrams.net" modified="2020-10-29T09:20:04.999Z" agent="5.0 (Windows NT 10.0; Win64; x64) AppleWebKit/537.36 (KHTML, like Gecko) Chrome/86.0.4240.75 Safari/537.36" etag="0jjSvRc8S8ZaqnMtbVMe" version="13.8.5" type="github">
  <diagram id="C5RBs43oDa-KdzZeNtuy" name="Page-1">
    <mxGraphModel dx="782" dy="446" grid="1" gridSize="10" guides="1" tooltips="1" connect="1" arrows="1" fold="1" page="1" pageScale="1" pageWidth="827" pageHeight="1169" math="0" shadow="0">
      <root>
        <mxCell id="WIyWlLk6GJQsqaUBKTNV-0" />
        <mxCell id="WIyWlLk6GJQsqaUBKTNV-1" parent="WIyWlLk6GJQsqaUBKTNV-0" />
        <mxCell id="qSbHCsYBkUt2KmadV8RH-26" value="" style="rounded=0;whiteSpace=wrap;html=1;dashed=1;strokeColor=#6c8ebf;fillColor=none;" vertex="1" parent="WIyWlLk6GJQsqaUBKTNV-1">
          <mxGeometry y="40" width="640" height="720" as="geometry" />
        </mxCell>
        <mxCell id="qSbHCsYBkUt2KmadV8RH-5" style="edgeStyle=orthogonalEdgeStyle;rounded=0;orthogonalLoop=1;jettySize=auto;html=1;entryX=0;entryY=0.5;entryDx=0;entryDy=0;strokeColor=#6C8EBF;endArrow=block;endFill=0;endSize=8;" edge="1" parent="WIyWlLk6GJQsqaUBKTNV-1" source="WIyWlLk6GJQsqaUBKTNV-3" target="qSbHCsYBkUt2KmadV8RH-2">
          <mxGeometry relative="1" as="geometry" />
        </mxCell>
        <mxCell id="WIyWlLk6GJQsqaUBKTNV-3" value="&lt;font color=&quot;#6c8ebf&quot;&gt;Create Feature Branch &lt;br&gt;From development branch&amp;nbsp;&lt;/font&gt;" style="rounded=1;whiteSpace=wrap;html=1;fontSize=12;glass=0;strokeWidth=1;shadow=0;fillColor=#dae8fc;strokeColor=#6c8ebf;" parent="WIyWlLk6GJQsqaUBKTNV-1" vertex="1">
          <mxGeometry x="160" y="80" width="160" height="40" as="geometry" />
        </mxCell>
        <mxCell id="WIyWlLk6GJQsqaUBKTNV-5" value="&lt;font color=&quot;#6c8ebf&quot;&gt;No&lt;/font&gt;" style="edgeStyle=orthogonalEdgeStyle;rounded=0;html=1;jettySize=auto;orthogonalLoop=1;fontSize=11;endArrow=block;endFill=0;endSize=8;strokeWidth=1;shadow=0;labelBackgroundColor=none;strokeColor=#6C8EBF;entryX=1;entryY=0.5;entryDx=0;entryDy=0;exitX=1;exitY=0.5;exitDx=0;exitDy=0;spacingTop=4;spacingLeft=4;spacingBottom=4;spacingRight=4;spacing=4;align=right;" parent="WIyWlLk6GJQsqaUBKTNV-1" source="WIyWlLk6GJQsqaUBKTNV-6" target="qSbHCsYBkUt2KmadV8RH-2" edge="1">
          <mxGeometry x="0.0769" y="28" relative="1" as="geometry">
            <mxPoint x="20" y="-8" as="offset" />
            <mxPoint x="590" y="100" as="targetPoint" />
            <Array as="points">
              <mxPoint x="600" y="200" />
              <mxPoint x="600" y="100" />
            </Array>
          </mxGeometry>
        </mxCell>
        <mxCell id="qSbHCsYBkUt2KmadV8RH-8" value="" style="edgeStyle=orthogonalEdgeStyle;rounded=0;orthogonalLoop=1;jettySize=auto;html=1;strokeColor=#6C8EBF;endSize=8;endArrow=block;endFill=0;" edge="1" parent="WIyWlLk6GJQsqaUBKTNV-1" source="WIyWlLk6GJQsqaUBKTNV-6" target="qSbHCsYBkUt2KmadV8RH-7">
          <mxGeometry relative="1" as="geometry" />
        </mxCell>
        <mxCell id="WIyWlLk6GJQsqaUBKTNV-6" value="&lt;font color=&quot;#6c8ebf&quot;&gt;success&lt;/font&gt;" style="rhombus;whiteSpace=wrap;html=1;shadow=0;fontFamily=Helvetica;fontSize=12;align=center;strokeWidth=1;spacing=6;spacingTop=-4;fillColor=#dae8fc;strokeColor=#6c8ebf;" parent="WIyWlLk6GJQsqaUBKTNV-1" vertex="1">
          <mxGeometry x="440" y="160" width="80" height="80" as="geometry" />
        </mxCell>
        <mxCell id="qSbHCsYBkUt2KmadV8RH-1" style="edgeStyle=orthogonalEdgeStyle;rounded=0;orthogonalLoop=1;jettySize=auto;html=1;fillColor=#dae8fc;strokeColor=#6c8ebf;endArrow=block;endFill=0;endSize=8;" edge="1" parent="WIyWlLk6GJQsqaUBKTNV-1" source="qSbHCsYBkUt2KmadV8RH-0" target="WIyWlLk6GJQsqaUBKTNV-3">
          <mxGeometry relative="1" as="geometry" />
        </mxCell>
        <mxCell id="qSbHCsYBkUt2KmadV8RH-0" value="&lt;font color=&quot;#6c8ebf&quot;&gt;Start&lt;/font&gt;" style="strokeWidth=2;html=1;shape=mxgraph.flowchart.start_2;whiteSpace=wrap;fillColor=#dae8fc;strokeColor=#6c8ebf;" vertex="1" parent="WIyWlLk6GJQsqaUBKTNV-1">
          <mxGeometry x="40" y="80" width="40" height="40" as="geometry" />
        </mxCell>
        <mxCell id="qSbHCsYBkUt2KmadV8RH-6" value="" style="edgeStyle=orthogonalEdgeStyle;rounded=0;orthogonalLoop=1;jettySize=auto;html=1;strokeColor=#6C8EBF;endSize=8;endArrow=block;endFill=0;" edge="1" parent="WIyWlLk6GJQsqaUBKTNV-1" source="qSbHCsYBkUt2KmadV8RH-2" target="WIyWlLk6GJQsqaUBKTNV-6">
          <mxGeometry relative="1" as="geometry" />
        </mxCell>
        <mxCell id="qSbHCsYBkUt2KmadV8RH-2" value="&lt;font color=&quot;#6c8ebf&quot;&gt;Implement logic and verify in individual environment&lt;/font&gt;" style="rounded=1;whiteSpace=wrap;html=1;fontSize=12;glass=0;strokeWidth=1;shadow=0;fillColor=#dae8fc;strokeColor=#6c8ebf;" vertex="1" parent="WIyWlLk6GJQsqaUBKTNV-1">
          <mxGeometry x="400" y="80" width="160" height="40" as="geometry" />
        </mxCell>
        <mxCell id="qSbHCsYBkUt2KmadV8RH-10" style="edgeStyle=orthogonalEdgeStyle;rounded=0;orthogonalLoop=1;jettySize=auto;html=1;entryX=0.5;entryY=0;entryDx=0;entryDy=0;strokeColor=#6C8EBF;endArrow=block;endFill=0;endSize=8;" edge="1" parent="WIyWlLk6GJQsqaUBKTNV-1" source="qSbHCsYBkUt2KmadV8RH-7" target="qSbHCsYBkUt2KmadV8RH-9">
          <mxGeometry relative="1" as="geometry" />
        </mxCell>
        <mxCell id="qSbHCsYBkUt2KmadV8RH-7" value="&lt;font color=&quot;#6c8ebf&quot;&gt;Update application version and commit to branch&lt;/font&gt;" style="rounded=1;whiteSpace=wrap;html=1;fontSize=12;glass=0;strokeWidth=1;shadow=0;fillColor=#dae8fc;strokeColor=#6c8ebf;" vertex="1" parent="WIyWlLk6GJQsqaUBKTNV-1">
          <mxGeometry x="400" y="280" width="160" height="40" as="geometry" />
        </mxCell>
        <mxCell id="qSbHCsYBkUt2KmadV8RH-13" style="edgeStyle=orthogonalEdgeStyle;rounded=0;orthogonalLoop=1;jettySize=auto;html=1;entryX=0.5;entryY=0;entryDx=0;entryDy=0;strokeColor=#6C8EBF;endSize=8;endArrow=block;endFill=0;" edge="1" parent="WIyWlLk6GJQsqaUBKTNV-1" source="qSbHCsYBkUt2KmadV8RH-9" target="qSbHCsYBkUt2KmadV8RH-11">
          <mxGeometry relative="1" as="geometry" />
        </mxCell>
        <mxCell id="qSbHCsYBkUt2KmadV8RH-9" value="&lt;font color=&quot;#6c8ebf&quot;&gt;Create Pull Request to merge with development&lt;/font&gt;" style="rounded=1;whiteSpace=wrap;html=1;fontSize=12;glass=0;strokeWidth=1;shadow=0;fillColor=#dae8fc;strokeColor=#6c8ebf;" vertex="1" parent="WIyWlLk6GJQsqaUBKTNV-1">
          <mxGeometry x="400" y="360" width="160" height="40" as="geometry" />
        </mxCell>
        <mxCell id="qSbHCsYBkUt2KmadV8RH-15" value="" style="edgeStyle=orthogonalEdgeStyle;rounded=0;orthogonalLoop=1;jettySize=auto;html=1;endArrow=block;endFill=0;endSize=8;strokeColor=#6C8EBF;align=right;" edge="1" parent="WIyWlLk6GJQsqaUBKTNV-1" source="qSbHCsYBkUt2KmadV8RH-11" target="qSbHCsYBkUt2KmadV8RH-14">
          <mxGeometry relative="1" as="geometry" />
        </mxCell>
        <mxCell id="qSbHCsYBkUt2KmadV8RH-11" value="&lt;font color=&quot;#6c8ebf&quot;&gt;Review Pull Request&lt;/font&gt;" style="rounded=1;whiteSpace=wrap;html=1;fontSize=12;glass=0;strokeWidth=1;shadow=0;fillColor=#dae8fc;strokeColor=#6c8ebf;" vertex="1" parent="WIyWlLk6GJQsqaUBKTNV-1">
          <mxGeometry x="400" y="480" width="160" height="40" as="geometry" />
        </mxCell>
        <mxCell id="qSbHCsYBkUt2KmadV8RH-16" style="edgeStyle=orthogonalEdgeStyle;rounded=0;orthogonalLoop=1;jettySize=auto;html=1;endArrow=block;endFill=0;endSize=8;strokeColor=#6C8EBF;align=right;" edge="1" parent="WIyWlLk6GJQsqaUBKTNV-1" source="qSbHCsYBkUt2KmadV8RH-14">
          <mxGeometry relative="1" as="geometry">
            <mxPoint x="360" y="100" as="targetPoint" />
          </mxGeometry>
        </mxCell>
        <mxCell id="qSbHCsYBkUt2KmadV8RH-20" value="" style="edgeStyle=orthogonalEdgeStyle;rounded=0;orthogonalLoop=1;jettySize=auto;html=1;endArrow=block;endFill=0;endSize=8;strokeColor=#6C8EBF;align=right;" edge="1" parent="WIyWlLk6GJQsqaUBKTNV-1" source="qSbHCsYBkUt2KmadV8RH-14" target="qSbHCsYBkUt2KmadV8RH-19">
          <mxGeometry relative="1" as="geometry" />
        </mxCell>
        <mxCell id="qSbHCsYBkUt2KmadV8RH-14" value="&lt;font color=&quot;#6c8ebf&quot;&gt;Review Passed&lt;/font&gt;" style="rhombus;whiteSpace=wrap;html=1;shadow=0;fontFamily=Helvetica;fontSize=12;align=center;strokeWidth=1;spacing=6;spacingTop=-4;fillColor=#dae8fc;strokeColor=#6c8ebf;" vertex="1" parent="WIyWlLk6GJQsqaUBKTNV-1">
          <mxGeometry x="440" y="560" width="80" height="80" as="geometry" />
        </mxCell>
        <mxCell id="qSbHCsYBkUt2KmadV8RH-17" value="&lt;font color=&quot;#6c8ebf&quot; style=&quot;font-size: 11px&quot;&gt;No&lt;/font&gt;" style="text;html=1;align=center;verticalAlign=middle;resizable=0;points=[];autosize=1;" vertex="1" parent="WIyWlLk6GJQsqaUBKTNV-1">
          <mxGeometry x="330" y="330" width="30" height="20" as="geometry" />
        </mxCell>
        <mxCell id="qSbHCsYBkUt2KmadV8RH-18" value="&lt;font color=&quot;#6c8ebf&quot; style=&quot;font-size: 11px&quot;&gt;Yes&lt;/font&gt;" style="text;html=1;align=center;verticalAlign=middle;resizable=0;points=[];autosize=1;" vertex="1" parent="WIyWlLk6GJQsqaUBKTNV-1">
          <mxGeometry x="445" y="247" width="30" height="20" as="geometry" />
        </mxCell>
        <mxCell id="qSbHCsYBkUt2KmadV8RH-23" style="edgeStyle=orthogonalEdgeStyle;rounded=0;orthogonalLoop=1;jettySize=auto;html=1;endArrow=block;endFill=0;endSize=8;strokeColor=#6C8EBF;align=right;" edge="1" parent="WIyWlLk6GJQsqaUBKTNV-1" source="qSbHCsYBkUt2KmadV8RH-19" target="qSbHCsYBkUt2KmadV8RH-22">
          <mxGeometry relative="1" as="geometry" />
        </mxCell>
        <mxCell id="qSbHCsYBkUt2KmadV8RH-19" value="&lt;font color=&quot;#6c8ebf&quot;&gt;Approve to merge with development branch&lt;/font&gt;" style="rounded=1;whiteSpace=wrap;html=1;fontSize=12;glass=0;strokeWidth=1;shadow=0;fillColor=#dae8fc;strokeColor=#6c8ebf;" vertex="1" parent="WIyWlLk6GJQsqaUBKTNV-1">
          <mxGeometry x="400" y="680" width="160" height="40" as="geometry" />
        </mxCell>
        <mxCell id="qSbHCsYBkUt2KmadV8RH-21" value="&lt;font color=&quot;#6c8ebf&quot; style=&quot;font-size: 11px&quot;&gt;Yes&lt;/font&gt;" style="text;html=1;align=center;verticalAlign=middle;resizable=0;points=[];autosize=1;" vertex="1" parent="WIyWlLk6GJQsqaUBKTNV-1">
          <mxGeometry x="440" y="650" width="30" height="20" as="geometry" />
        </mxCell>
        <mxCell id="qSbHCsYBkUt2KmadV8RH-25" style="edgeStyle=orthogonalEdgeStyle;rounded=0;orthogonalLoop=1;jettySize=auto;html=1;entryX=1;entryY=0.5;entryDx=0;entryDy=0;entryPerimeter=0;endArrow=block;endFill=0;endSize=8;strokeColor=#6C8EBF;align=right;" edge="1" parent="WIyWlLk6GJQsqaUBKTNV-1" source="qSbHCsYBkUt2KmadV8RH-22" target="qSbHCsYBkUt2KmadV8RH-24">
          <mxGeometry relative="1" as="geometry" />
        </mxCell>
        <mxCell id="qSbHCsYBkUt2KmadV8RH-22" value="&lt;font color=&quot;#6c8ebf&quot;&gt;create tag and push &lt;br&gt;to build and deploy&lt;/font&gt;" style="rounded=1;whiteSpace=wrap;html=1;fontSize=12;glass=0;strokeWidth=1;shadow=0;fillColor=#dae8fc;strokeColor=#6c8ebf;" vertex="1" parent="WIyWlLk6GJQsqaUBKTNV-1">
          <mxGeometry x="160" y="680" width="160" height="40" as="geometry" />
        </mxCell>
        <mxCell id="qSbHCsYBkUt2KmadV8RH-24" value="&lt;font color=&quot;#6c8ebf&quot;&gt;End&lt;/font&gt;" style="strokeWidth=2;html=1;shape=mxgraph.flowchart.start_2;whiteSpace=wrap;fillColor=#dae8fc;strokeColor=#6c8ebf;" vertex="1" parent="WIyWlLk6GJQsqaUBKTNV-1">
          <mxGeometry x="40" y="680" width="40" height="40" as="geometry" />
        </mxCell>
        <mxCell id="qSbHCsYBkUt2KmadV8RH-28" value="" style="endArrow=none;dashed=1;html=1;strokeColor=#6C8EBF;align=right;entryX=1.001;entryY=0.556;entryDx=0;entryDy=0;entryPerimeter=0;" edge="1" parent="WIyWlLk6GJQsqaUBKTNV-1" target="qSbHCsYBkUt2KmadV8RH-26">
          <mxGeometry width="50" height="50" relative="1" as="geometry">
            <mxPoint y="438" as="sourcePoint" />
            <mxPoint x="360" y="380" as="targetPoint" />
          </mxGeometry>
        </mxCell>
        <mxCell id="qSbHCsYBkUt2KmadV8RH-29" value="&lt;font style=&quot;font-size: 16px&quot; color=&quot;#6c8ebf&quot;&gt;&lt;b&gt;Developer Activity&lt;/b&gt;&lt;/font&gt;" style="text;html=1;strokeColor=none;fillColor=none;align=center;verticalAlign=middle;whiteSpace=wrap;rounded=0;dashed=1;" vertex="1" parent="WIyWlLk6GJQsqaUBKTNV-1">
          <mxGeometry x="40" y="400" width="250" height="30" as="geometry" />
        </mxCell>
        <mxCell id="qSbHCsYBkUt2KmadV8RH-30" value="&lt;font style=&quot;font-size: 16px&quot; color=&quot;#6c8ebf&quot;&gt;&lt;b&gt;Reviewer Activity&lt;/b&gt;&lt;/font&gt;" style="text;html=1;strokeColor=none;fillColor=none;align=center;verticalAlign=middle;whiteSpace=wrap;rounded=0;dashed=1;" vertex="1" parent="WIyWlLk6GJQsqaUBKTNV-1">
          <mxGeometry x="40" y="450" width="250" height="30" as="geometry" />
        </mxCell>
      </root>
    </mxGraphModel>
  </diagram>
</mxfile>
